<svg xmlns="http://www.w3.org/2000/svg" width="31.5" height="24.5" viewBox="0 0 31.5 24.5">
  <path id="Icon_awesome-shopping-basket" data-name="Icon awesome-shopping-basket" d="M31.5,12.312v.875A1.312,1.312,0,0,1,30.187,14.5H29.75l-1.428,10a2.625,2.625,0,0,1-2.6,2.254H5.777a2.625,2.625,0,0,1-2.6-2.254L1.75,14.5H1.312A1.312,1.312,0,0,1,0,13.187v-.875A1.312,1.312,0,0,1,1.312,11H5l5.839-8.029a1.75,1.75,0,1,1,2.831,2.059L9.323,11H22.177L17.834,5.029a1.75,1.75,0,0,1,2.831-2.059L26.5,11h3.683A1.312,1.312,0,0,1,31.5,12.312ZM17.062,21.937V15.812a1.312,1.312,0,1,0-2.625,0v6.125a1.312,1.312,0,1,0,2.625,0Zm6.125,0V15.812a1.312,1.312,0,1,0-2.625,0v6.125a1.312,1.312,0,1,0,2.625,0Zm-12.25,0V15.812a1.312,1.312,0,1,0-2.625,0v6.125a1.312,1.312,0,1,0,2.625,0Z" transform="translate(0 -2.25)" fill="#fff"/>
</svg>
